<?xml version="1.0" standalone="no"?>
<!DOCTYPE svg PUBLIC "-//W3C//DTD SVG 20010904//EN"
 "http://www.w3.org/TR/2001/REC-SVG-20010904/DTD/svg10.dtd">
<svg version="1.0" xmlns="http://www.w3.org/2000/svg"
 width="500.000000pt" height="500.000000pt" viewBox="0 0 500.000000 500.000000"
 preserveAspectRatio="xMidYMid meet">

<g transform="translate(0.000000,500.000000) scale(0.100000,-0.100000)"
fill="#000000" stroke="none">
<path d="M990 3270 c0 -19 6 -20 90 -20 l90 0 0 -275 c0 -268 1 -275 20 -275
19 0 20 8 22 246 l3 246 85 -243 85 -244 119 -3 118 -3 -6 23 c-3 13 -50 145
-104 293 l-97 270 -213 3 c-207 2 -212 2 -212 -18z"/>
<path d="M2238 3243 c-9 -27 -54 -160 -102 -296 -79 -230 -84 -248 -64 -245
18 3 33 37 107 250 l86 248 3 -250 2 -250 115 0 115 0 0 275 0 275 70 0 70 0
0 -275 0 -275 115 0 115 0 0 275 0 274 93 3 c74 2 92 6 92 18 0 13 -52 15
-401 18 l-400 2 -16 -47z"/>
<path d="M3352 3273 c3 -16 17 -18 103 -21 l99 -3 -274 -274 c-251 -251 -272
-275 -245 -275 26 0 67 37 305 275 l275 275 97 0 c91 0 98 1 98 20 0 19 -7 20
-231 20 -214 0 -230 -1 -227 -17z"/>
<path d="M1690 2515 c0 -51 3 -65 15 -65 10 0 15 10 15 33 l1 32 17 -27 c9
-16 19 -28 22 -28 3 0 13 12 22 28 l17 27 1 -32 c0 -23 5 -33 15 -33 12 0 15
14 15 66 0 75 -12 81 -46 19 l-22 -38 -26 42 c-14 22 -31 41 -36 41 -6 0 -10
-29 -10 -65z"/>
<path d="M1960 2573 c-41 -15 -54 -78 -22 -106 25 -22 75 -21 95 1 20 22 22
75 4 90 -16 14 -58 22 -77 15z m55 -57 c0 -36 -26 -56 -49 -37 -16 14 -22 52
-9 65 4 4 19 6 33 4 20 -2 25 -8 25 -32z"/>
<path d="M2148 2569 c-30 -17 -22 -48 17 -65 47 -19 46 -38 -1 -29 -28 5 -35
3 -32 -7 6 -17 65 -23 84 -7 25 21 16 47 -21 59 -43 14 -46 30 -5 30 32 0 40
14 14 24 -22 8 -36 7 -56 -5z"/>
<path d="M2317 2573 c-4 -3 -7 -33 -7 -65 l0 -58 50 0 c55 0 69 17 18 22 -42
4 -50 28 -9 28 38 0 41 17 4 22 -42 5 -41 28 1 28 25 0 36 4 36 15 0 11 -11
15 -43 15 -24 0 -47 -3 -50 -7z"/>
<path d="M2508 2569 c-30 -17 -22 -48 17 -65 47 -19 46 -38 -1 -29 -28 5 -35
3 -32 -7 6 -17 65 -23 84 -7 25 21 16 47 -21 59 -43 14 -46 30 -5 30 32 0 40
14 14 24 -22 8 -36 7 -56 -5z"/>
<path d="M2787 2573 c-4 -3 -7 -33 -7 -65 0 -45 3 -58 15 -58 8 0 15 6 15 14
0 26 21 29 44 7 37 -35 51 -25 21 15 l-27 35 23 25 c35 38 13 41 -26 4 l-35
-34 0 32 c0 30 -9 40 -23 25z"/>
<path d="M2980 2516 c0 -53 3 -66 15 -66 13 0 15 11 13 62 -2 38 -8 63 -15 66
-10 3 -13 -14 -13 -62z"/>
<path d="M3100 2515 c0 -51 3 -65 15 -65 10 0 15 10 15 33 l1 32 17 -27 c9
-16 19 -28 22 -28 3 0 13 12 22 28 l17 27 1 -32 c0 -23 5 -33 15 -33 12 0 15
14 15 66 0 75 -12 81 -46 19 l-22 -38 -26 42 c-14 22 -31 41 -36 41 -6 0 -10
-29 -10 -65z"/>
<path d="M1170 2035 l0 -265 -90 0 c-83 0 -90 -1 -90 -20 0 -19 7 -20 200 -20
193 0 200 1 200 20 0 19 -7 20 -90 20 l-90 0 0 265 c0 258 -1 265 -20 265 -19
0 -20 -7 -20 -265z"/>
<path d="M1532 2288 c147 -429 195 -558 208 -558 11 0 42 77 109 273 52 149
96 278 99 285 2 7 -4 12 -16 12 -16 0 -26 -18 -53 -95 -18 -52 -36 -95 -39
-95 -3 0 -20 43 -39 95 l-33 95 -120 0 c-92 0 -119 -3 -116 -12z"/>
<path d="M2270 2035 l0 -265 -90 0 c-83 0 -90 -1 -90 -20 0 -20 7 -20 486 -20
457 0 485 1 482 18 -3 14 -17 17 -96 20 l-92 3 0 264 0 265 -115 0 -115 0 0
-265 0 -265 -70 0 -70 0 0 265 0 265 -115 0 -115 0 0 -265z"/>
<path d="M3106 2273 c9 -16 91 -132 181 -260 90 -128 163 -234 163 -237 0 -4
-43 -6 -95 -6 -88 0 -95 -1 -95 -20 0 -20 7 -20 325 -20 318 0 325 0 325 20 0
19 -7 20 -92 20 l-93 0 -184 265 -184 265 -135 0 -134 0 18 -27z"/>
<path d="M1930 1540 c0 -39 2 -41 26 -38 15 2 32 11 38 21 15 24 -3 51 -38 55
-24 3 -26 1 -26 -38z m55 0 c0 -18 -6 -26 -22 -28 -20 -3 -23 1 -23 28 0 27 3
31 23 28 16 -2 22 -10 22 -28z"/>
<path d="M2100 1540 c0 -37 2 -40 28 -39 23 2 24 2 5 6 -18 3 -23 11 -23 33 0
22 5 30 23 33 19 4 18 4 -5 6 -26 1 -28 -2 -28 -39z"/>
<path d="M2246 1567 c3 -10 9 -15 12 -12 3 3 0 11 -7 18 -10 9 -11 8 -5 -6z"/>
<path d="M2300 1559 c-7 -11 -10 -23 -7 -25 2 -2 9 7 15 21 14 30 7 33 -8 4z"/>
<path d="M2410 1540 c0 -37 2 -40 28 -39 23 2 24 2 5 6 -18 3 -23 11 -23 33 0
22 5 30 23 33 19 4 18 4 -5 6 -26 1 -28 -2 -28 -39z"/>
<path d="M2738 1573 c7 -3 16 -2 19 1 4 3 -2 6 -13 5 -11 0 -14 -3 -6 -6z"/>
<path d="M2910 1571 c16 -5 24 -14 23 -25 -1 -13 2 -15 10 -7 14 14 -10 41
-37 40 -19 -1 -18 -2 4 -8z"/>
<path d="M3063 1573 c9 -2 23 -2 30 0 6 3 -1 5 -18 5 -16 0 -22 -2 -12 -5z"/>
<path d="M3202 1538 l1 -43 4 38 c3 29 9 37 24 37 21 0 25 -20 9 -36 -8 -8 -5
-15 7 -25 16 -12 17 -12 6 2 -9 11 -10 18 -1 27 17 17 1 42 -27 42 -23 0 -25
-3 -23 -42z"/>
<path d="M2706 1554 c-9 -24 12 -54 39 -54 31 0 51 33 35 58 -11 16 -11 16 -6
0 8 -28 -4 -48 -29 -48 -25 0 -38 21 -29 45 4 8 4 15 1 15 -3 0 -8 -7 -11 -16z"/>
<path d="M2260 1533 c0 -15 19 -37 26 -31 3 4 -1 14 -10 23 -9 9 -16 13 -16 8z"/>
<path d="M2890 1530 c0 -5 5 -10 11 -10 5 0 7 5 4 10 -3 6 -8 10 -11 10 -2 0
-4 -4 -4 -10z"/>
<path d="M2583 1503 c9 -2 23 -2 30 0 6 3 -1 5 -18 5 -16 0 -22 -2 -12 -5z"/>
<path d="M3063 1503 c9 -2 23 -2 30 0 6 3 -1 5 -18 5 -16 0 -22 -2 -12 -5z"/>
</g>
</svg>
